<svg width="158" height="32" viewBox="0 0 158 32" fill="none" xmlns="http://www.w3.org/2000/svg">
<path d="M46.7217 25.267H48.2498V31.8699H46.7217V25.267Z" fill="white"/>
<path d="M56.5329 25.267V31.8699H55.2784L51.9863 27.861V31.8699H50.4771V25.267H51.7411L55.0237 29.2759V25.267H56.5329Z" fill="white"/>
<path d="M60.1232 26.5121H58.0103V25.267H63.7643V26.5121H61.6513V31.8699H60.1232V26.5121Z" fill="white"/>
<path d="M70.3593 30.6437V31.8699H65.2467V25.267H70.2367V26.4933H66.7654V27.927H69.8311V29.1156H66.7654V30.6437H70.3593Z" fill="white"/>
<path d="M76.4425 31.8699L75.1691 30.0305H73.7636V31.8699H72.2355V25.267H75.0936C75.6784 25.267 76.1847 25.3645 76.6123 25.5594C77.0462 25.7544 77.3795 26.0311 77.6121 26.3895C77.8448 26.7479 77.9612 27.1724 77.9612 27.6629C77.9612 28.1534 77.8417 28.5779 77.6027 28.9363C77.37 29.2885 77.0367 29.5589 76.6028 29.7476L78.0838 31.8699H76.4425ZM76.4142 27.6629C76.4142 27.2919 76.2947 27.0089 76.0557 26.814C75.8168 26.6127 75.4678 26.5121 75.0087 26.5121H73.7636V28.8137H75.0087C75.4678 28.8137 75.8168 28.7131 76.0557 28.5119C76.2947 28.3106 76.4142 28.0277 76.4142 27.6629Z" fill="white"/>
<path d="M85.888 25.267V31.8699H84.6334L81.3414 27.861V31.8699H79.8322V25.267H81.0962L84.3788 29.2759V25.267H85.888Z" fill="white"/>
<path d="M93.2231 30.6437V31.8699H88.1105V25.267H93.1005V26.4933H89.6292V27.927H92.6948V29.1156H89.6292V30.6437H93.2231Z" fill="white"/>
<path d="M96.467 26.5121H94.3541V25.267H100.108V26.5121H97.9951V31.8699H96.467V26.5121Z" fill="white"/>
<path d="M107.092 31.9831C106.57 31.9831 106.064 31.914 105.573 31.7756C105.089 31.631 104.699 31.4455 104.403 31.2191L104.922 30.0683C105.205 30.2758 105.542 30.4424 105.932 30.5682C106.321 30.694 106.711 30.7569 107.101 30.7569C107.535 30.7569 107.856 30.694 108.063 30.5682C108.271 30.4362 108.375 30.2632 108.375 30.0494C108.375 29.8922 108.312 29.7633 108.186 29.6627C108.066 29.5558 107.909 29.4709 107.714 29.408C107.526 29.3451 107.268 29.2759 106.941 29.2005C106.438 29.081 106.026 28.9615 105.705 28.842C105.384 28.7225 105.108 28.5307 104.875 28.2666C104.649 28.0025 104.535 27.6503 104.535 27.2102C104.535 26.8266 104.639 26.4807 104.847 26.1725C105.054 25.8581 105.366 25.6097 105.781 25.4274C106.202 25.245 106.714 25.1538 107.318 25.1538C107.739 25.1538 108.151 25.2041 108.554 25.3047C108.956 25.4053 109.308 25.55 109.61 25.7386L109.139 26.8989C108.529 26.553 107.919 26.3801 107.309 26.3801C106.881 26.3801 106.564 26.4492 106.356 26.5876C106.155 26.7259 106.054 26.9083 106.054 27.1347C106.054 27.3611 106.17 27.5309 106.403 27.6441C106.642 27.751 107.004 27.8579 107.488 27.9648C107.991 28.0843 108.403 28.2037 108.724 28.3232C109.044 28.4427 109.318 28.6314 109.544 28.8892C109.777 29.147 109.893 29.496 109.893 29.9362C109.893 30.3135 109.786 30.6594 109.573 30.9738C109.365 31.282 109.051 31.5272 108.629 31.7096C108.208 31.8919 107.695 31.9831 107.092 31.9831Z" fill="white"/>
<path d="M116.71 30.6437V31.8699H111.598V25.267H116.588V26.4933H113.116V27.927H116.182V29.1156H113.116V30.6437H116.71Z" fill="white"/>
<path d="M121.728 31.9831C121.055 31.9831 120.445 31.8385 119.898 31.5492C119.357 31.2537 118.93 30.8481 118.615 30.3324C118.307 29.8105 118.153 29.2225 118.153 28.5685C118.153 27.9145 118.307 27.3296 118.615 26.814C118.93 26.292 119.357 25.8864 119.898 25.5971C120.445 25.3016 121.058 25.1538 121.737 25.1538C122.31 25.1538 122.825 25.2544 123.284 25.4557C123.75 25.6569 124.14 25.9462 124.454 26.3235L123.473 27.229C123.027 26.7134 122.473 26.4555 121.813 26.4555C121.404 26.4555 121.039 26.5467 120.719 26.7291C120.398 26.9052 120.146 27.1536 119.964 27.4743C119.788 27.795 119.7 28.1597 119.7 28.5685C119.7 28.9772 119.788 29.342 119.964 29.6627C120.146 29.9834 120.398 30.2349 120.719 30.4173C121.039 30.5934 121.404 30.6814 121.813 30.6814C122.473 30.6814 123.027 30.4204 123.473 29.8985L124.454 30.804C124.14 31.1876 123.75 31.4801 123.284 31.6813C122.819 31.8825 122.3 31.9831 121.728 31.9831Z" fill="white"/>
<path d="M129.025 31.9831C128.081 31.9831 127.346 31.7222 126.817 31.2002C126.295 30.6783 126.034 29.9331 126.034 28.9646V25.267H127.563V28.908C127.563 30.0903 128.053 30.6814 129.034 30.6814C129.512 30.6814 129.877 30.5399 130.128 30.2569C130.38 29.9677 130.506 29.518 130.506 28.908V25.267H132.015V28.9646C132.015 29.9331 131.751 30.6783 131.222 31.2002C130.701 31.7222 129.968 31.9831 129.025 31.9831Z" fill="white"/>
<path d="M138.392 31.8699L137.119 30.0305H135.713V31.8699H134.185V25.267H137.043C137.628 25.267 138.134 25.3645 138.562 25.5594C138.996 25.7544 139.329 26.0311 139.562 26.3895C139.795 26.7479 139.911 27.1724 139.911 27.6629C139.911 28.1534 139.791 28.5779 139.552 28.9363C139.32 29.2885 138.986 29.5589 138.553 29.7476L140.033 31.8699H138.392ZM138.364 27.6629C138.364 27.2919 138.244 27.0089 138.005 26.814C137.766 26.6127 137.417 26.5121 136.958 26.5121H135.713V28.8137H136.958C137.417 28.8137 137.766 28.7131 138.005 28.5119C138.244 28.3106 138.364 28.0277 138.364 27.6629Z" fill="white"/>
<path d="M141.782 25.267H143.31V31.8699H141.782V25.267Z" fill="white"/>
<path d="M146.905 26.5121H144.792V25.267H150.546V26.5121H148.433V31.8699H146.905V26.5121Z" fill="white"/>
<path d="M155.078 29.5306V31.8699H153.55V29.5117L150.994 25.267H152.616L154.38 28.2006L156.144 25.267H157.644L155.078 29.5306Z" fill="white"/>
<path d="M57.8173 16.016H50.5948L49.217 19.2586H45.528L52.4616 4.12683H56.0172L62.973 19.2586H59.1951L57.8173 16.016ZM56.6839 13.3572L54.2172 7.5639L51.7504 13.3572H56.6839Z" fill="white"/>
<path d="M76.7207 19.2586L73.7206 15.0433H70.4094V19.2586H66.8092V4.12683H73.5428C74.9206 4.12683 76.1132 4.3502 77.1207 4.79695C78.1429 5.2437 78.9282 5.87779 79.4763 6.69923C80.0245 7.52066 80.2986 8.49342 80.2986 9.61749C80.2986 10.7416 80.0171 11.7143 79.4541 12.5357C78.9059 13.3428 78.1207 13.9625 77.0985 14.3948L80.5875 19.2586H76.7207ZM76.654 9.61749C76.654 8.76723 76.3725 8.11873 75.8095 7.67198C75.2466 7.21082 74.4243 6.98024 73.3428 6.98024H70.4094V12.2547H73.3428C74.4243 12.2547 75.2466 12.0242 75.8095 11.563C76.3725 11.1018 76.654 10.4533 76.654 9.61749Z" fill="white"/>
<path d="M88.3785 6.98024H83.4006V4.12683H96.9566V6.98024H91.9786V19.2586H88.3785V6.98024Z" fill="white"/>
<path d="M115.272 19.2586L115.25 10.1795L110.672 17.6589H109.049L104.494 10.3741V19.2586H101.116V4.12683H104.094L109.916 13.5301L115.65 4.12683H118.605L118.65 19.2586H115.272Z" fill="white"/>
<path d="M134.808 16.016H127.585L126.207 19.2586H122.518L129.452 4.12683H133.008L139.963 19.2586H136.185L134.808 16.016ZM133.674 13.3572L131.207 7.5639L128.741 13.3572H133.674Z" fill="white"/>
<path d="M152.797 19.2586L149.041 14.0057L145.352 19.2586H141.219L146.974 11.563L141.508 4.12683H145.597L149.175 9.03383L152.686 4.12683H156.575L151.152 11.4333L156.953 19.2586H152.797Z" fill="white"/>
<path d="M17.0844 26.3233H10.608L19.9322 11.3556L29.2563 26.3233H22.7949L22.8164 32H39.8643L19.9322 0L0 32H17.0469L17.0844 26.3233Z" fill="white"/>
</svg>
