<?xml version="1.0" encoding="UTF-8"?> <svg xmlns="http://www.w3.org/2000/svg" width="265" height="267" viewBox="0 0 265 267" fill="none"> <g opacity="0.2"> <path d="M5.2649 10.826C8.17262 10.826 10.5298 8.46663 10.5298 5.55624C10.5298 2.64584 8.17262 0.286499 5.2649 0.286499C2.35718 0.286499 0 2.64584 0 5.55624C0 8.46663 2.35718 10.826 5.2649 10.826Z" fill="#0AD395"></path> <path d="M5.2649 74.0628C8.17262 74.0628 10.5298 71.7034 10.5298 68.7931C10.5298 65.8827 8.17262 63.5233 5.2649 63.5233C2.35718 63.5233 0 65.8827 0 68.7931C0 71.7034 2.35718 74.0628 5.2649 74.0628Z" fill="#0AD395"></path> <path d="M5.2649 137.3C8.17262 137.3 10.5298 134.94 10.5298 132.03C10.5298 129.12 8.17262 126.76 5.2649 126.76C2.35718 126.76 0 129.12 0 132.03C0 134.94 2.35718 137.3 5.2649 137.3Z" fill="#0AD395"></path> <path d="M5.2649 202.293C8.17262 202.293 10.5298 199.934 10.5298 197.023C10.5298 194.113 8.17262 191.753 5.2649 191.753C2.35718 191.753 0 194.113 0 197.023C0 199.934 2.35718 202.293 5.2649 202.293Z" fill="#0AD395"></path> <path d="M5.2649 265.53C8.17262 265.53 10.5298 263.17 10.5298 260.26C10.5298 257.35 8.17262 254.99 5.2649 254.99C2.35718 254.99 0 257.35 0 260.26C0 263.17 2.35718 265.53 5.2649 265.53Z" fill="#0AD395"></path> <path d="M68.4436 10.826C71.3513 10.826 73.7085 8.46663 73.7085 5.55624C73.7085 2.64584 71.3513 0.286499 68.4436 0.286499C65.5359 0.286499 63.1787 2.64584 63.1787 5.55624C63.1787 8.46663 65.5359 10.826 68.4436 10.826Z" fill="#0AD395"></path> <path d="M68.4436 74.0628C71.3513 74.0628 73.7085 71.7034 73.7085 68.7931C73.7085 65.8827 71.3513 63.5233 68.4436 63.5233C65.5359 63.5233 63.1787 65.8827 63.1787 68.7931C63.1787 71.7034 65.5359 74.0628 68.4436 74.0628Z" fill="#0AD395"></path> <path d="M68.4436 137.3C71.3513 137.3 73.7085 134.94 73.7085 132.03C73.7085 129.12 71.3513 126.76 68.4436 126.76C65.5359 126.76 63.1787 129.12 63.1787 132.03C63.1787 134.94 65.5359 137.3 68.4436 137.3Z" fill="#0AD395"></path> <path d="M68.4436 202.293C71.3513 202.293 73.7085 199.934 73.7085 197.023C73.7085 194.113 71.3513 191.753 68.4436 191.753C65.5359 191.753 63.1787 194.113 63.1787 197.023C63.1787 199.934 65.5359 202.293 68.4436 202.293Z" fill="#0AD395"></path> <path d="M68.4436 265.53C71.3513 265.53 73.7085 263.17 73.7085 260.26C73.7085 257.35 71.3513 254.99 68.4436 254.99C65.5359 254.99 63.1787 257.35 63.1787 260.26C63.1787 263.17 65.5359 265.53 68.4436 265.53Z" fill="#0AD395"></path> <path d="M131.622 10.826C134.53 10.826 136.887 8.46663 136.887 5.55624C136.887 2.64584 134.53 0.286499 131.622 0.286499C128.715 0.286499 126.357 2.64584 126.357 5.55624C126.357 8.46663 128.715 10.826 131.622 10.826Z" fill="#0AD395"></path> <path d="M131.622 74.0628C134.53 74.0628 136.887 71.7034 136.887 68.7931C136.887 65.8827 134.53 63.5233 131.622 63.5233C128.715 63.5233 126.357 65.8827 126.357 68.7931C126.357 71.7034 128.715 74.0628 131.622 74.0628Z" fill="#0AD395"></path> <path d="M131.622 137.3C134.53 137.3 136.887 134.94 136.887 132.03C136.887 129.12 134.53 126.76 131.622 126.76C128.715 126.76 126.357 129.12 126.357 132.03C126.357 134.94 128.715 137.3 131.622 137.3Z" fill="#0AD395"></path> <path d="M131.622 202.293C134.53 202.293 136.887 199.934 136.887 197.023C136.887 194.113 134.53 191.753 131.622 191.753C128.715 191.753 126.357 194.113 126.357 197.023C126.357 199.934 128.715 202.293 131.622 202.293Z" fill="#0AD395"></path> <path d="M131.622 265.53C134.53 265.53 136.887 263.17 136.887 260.26C136.887 257.35 134.53 254.99 131.622 254.99C128.715 254.99 126.357 257.35 126.357 260.26C126.357 263.17 128.715 265.53 131.622 265.53Z" fill="#0AD395"></path> <path d="M196.556 10.826C199.464 10.826 201.821 8.46663 201.821 5.55624C201.821 2.64584 199.464 0.286499 196.556 0.286499C193.649 0.286499 191.292 2.64584 191.292 5.55624C191.292 8.46663 193.649 10.826 196.556 10.826Z" fill="#0AD395"></path> <path d="M196.556 74.0628C199.464 74.0628 201.821 71.7034 201.821 68.7931C201.821 65.8827 199.464 63.5233 196.556 63.5233C193.649 63.5233 191.292 65.8827 191.292 68.7931C191.292 71.7034 193.649 74.0628 196.556 74.0628Z" fill="#0AD395"></path> <path d="M196.556 137.3C199.464 137.3 201.821 134.94 201.821 132.03C201.821 129.12 199.464 126.76 196.556 126.76C193.649 126.76 191.292 129.12 191.292 132.03C191.292 134.94 193.649 137.3 196.556 137.3Z" fill="#0AD395"></path> <path d="M196.556 202.293C199.464 202.293 201.821 199.934 201.821 197.023C201.821 194.113 199.464 191.753 196.556 191.753C193.649 191.753 191.292 194.113 191.292 197.023C191.292 199.934 193.649 202.293 196.556 202.293Z" fill="#0AD395"></path> <path d="M196.556 265.53C199.464 265.53 201.821 263.17 201.821 260.26C201.821 257.35 199.464 254.99 196.556 254.99C193.649 254.99 191.292 257.35 191.292 260.26C191.292 263.17 193.649 265.53 196.556 265.53Z" fill="#0AD395"></path> <path d="M259.735 10.826C262.643 10.826 265 8.46663 265 5.55624C265 2.64584 262.643 0.286499 259.735 0.286499C256.827 0.286499 254.47 2.64584 254.47 5.55624C254.47 8.46663 256.827 10.826 259.735 10.826Z" fill="#0AD395"></path> <path d="M259.735 74.0628C262.643 74.0628 265 71.7034 265 68.7931C265 65.8827 262.643 63.5233 259.735 63.5233C256.827 63.5233 254.47 65.8827 254.47 68.7931C254.47 71.7034 256.827 74.0628 259.735 74.0628Z" fill="#0AD395"></path> <path d="M259.735 137.3C262.643 137.3 265 134.94 265 132.03C265 129.12 262.643 126.76 259.735 126.76C256.827 126.76 254.47 129.12 254.47 132.03C254.47 134.94 256.827 137.3 259.735 137.3Z" fill="#0AD395"></path> <path d="M259.735 202.293C262.643 202.293 265 199.934 265 197.023C265 194.113 262.643 191.753 259.735 191.753C256.827 191.753 254.47 194.113 254.47 197.023C254.47 199.934 256.827 202.293 259.735 202.293Z" fill="#0AD395"></path> <path d="M259.735 265.53C262.643 265.53 265 263.17 265 260.26C265 257.35 262.643 254.99 259.735 254.99C256.827 254.99 254.47 257.35 254.47 260.26C254.47 263.17 256.827 265.53 259.735 265.53Z" fill="#0AD395"></path> </g> </svg> 