<?xml version="1.0" encoding="UTF-8"?> <svg xmlns="http://www.w3.org/2000/svg" width="990" height="212" viewBox="0 0 990 212" fill="none"> <path d="M152 170.696H161.451V211.304H152V170.696Z" fill="white"></path> <path d="M212.678 170.696V211.304H204.919L184.559 186.649V211.304H175.225V170.696H183.043L203.344 195.351V170.696H212.678Z" fill="white"></path> <path d="M234.882 178.354H221.814V170.696H257.4V178.354H244.333V211.304H234.882V178.354Z" fill="white"></path> <path d="M298.187 203.762V211.304H266.569V170.696H297.429V178.238H275.961V187.055H294.92V194.365H275.961V203.762H298.187Z" fill="white"></path> <path d="M335.809 211.304L327.933 199.992H319.241V211.304H309.79V170.696H327.466C331.083 170.696 334.214 171.296 336.859 172.494C339.542 173.693 341.603 175.395 343.042 177.599C344.481 179.804 345.201 182.414 345.201 185.431C345.201 188.448 344.462 191.058 342.984 193.262C341.545 195.428 339.484 197.091 336.8 198.251L345.959 211.304H335.809ZM335.634 185.431C335.634 183.149 334.895 181.409 333.417 180.21C331.939 178.972 329.781 178.354 326.941 178.354H319.241V192.508H326.941C329.781 192.508 331.939 191.89 333.417 190.652C334.895 189.414 335.634 187.674 335.634 185.431Z" fill="white"></path> <path d="M394.225 170.696V211.304H386.466L366.106 186.649V211.304H356.772V170.696H364.589L384.891 195.351V170.696H394.225Z" fill="white"></path> <path d="M439.588 203.762V211.304H407.97V170.696H438.83V178.238H417.362V187.055H436.322V194.365H417.362V203.762H439.588Z" fill="white"></path> <path d="M459.65 178.354H446.583V170.696H482.169V178.354H469.101V211.304H459.65V178.354Z" fill="white"></path> <path d="M525.359 212C522.131 212 519.001 211.575 515.967 210.724C512.973 209.834 510.561 208.693 508.733 207.301L511.942 200.224C513.692 201.5 515.773 202.525 518.184 203.298C520.595 204.072 523.006 204.459 525.418 204.459C528.101 204.459 530.085 204.072 531.368 203.298C532.652 202.486 533.293 201.423 533.293 200.108C533.293 199.141 532.904 198.348 532.127 197.729C531.388 197.072 530.415 196.55 529.21 196.163C528.043 195.776 526.448 195.351 524.426 194.887C521.315 194.152 518.767 193.417 516.784 192.682C514.8 191.948 513.089 190.768 511.65 189.144C510.25 187.519 509.55 185.354 509.55 182.646C509.55 180.287 510.192 178.16 511.475 176.265C512.759 174.331 514.684 172.804 517.251 171.682C519.856 170.561 523.026 170 526.759 170C529.365 170 531.913 170.309 534.402 170.928C536.891 171.547 539.069 172.436 540.935 173.597L538.019 180.732C534.246 178.605 530.474 177.541 526.701 177.541C524.057 177.541 522.093 177.967 520.809 178.818C519.565 179.669 518.942 180.79 518.942 182.182C518.942 183.575 519.662 184.619 521.101 185.315C522.579 185.972 524.815 186.63 527.81 187.287C530.921 188.022 533.468 188.757 535.452 189.492C537.435 190.227 539.127 191.387 540.527 192.972C541.966 194.558 542.686 196.704 542.686 199.412C542.686 201.732 542.024 203.859 540.702 205.793C539.419 207.688 537.474 209.196 534.868 210.318C532.263 211.439 529.093 212 525.359 212Z" fill="white"></path> <path d="M584.845 203.762V211.304H553.227V170.696H584.087V178.238H562.619V187.055H581.579V194.365H562.619V203.762H584.845Z" fill="white"></path> <path d="M615.878 212C611.716 212 607.944 211.11 604.56 209.331C601.216 207.514 598.571 205.019 596.626 201.848C594.721 198.638 593.768 195.022 593.768 191C593.768 186.978 594.721 183.381 596.626 180.21C598.571 177 601.216 174.506 604.56 172.727C607.944 170.909 611.736 170 615.936 170C619.475 170 622.664 170.619 625.503 171.856C628.381 173.094 630.792 174.873 632.737 177.193L626.67 182.762C623.909 179.591 620.486 178.006 616.403 178.006C613.875 178.006 611.619 178.566 609.635 179.688C607.652 180.771 606.096 182.298 604.969 184.271C603.88 186.243 603.335 188.486 603.335 191C603.335 193.514 603.88 195.757 604.969 197.729C606.096 199.702 607.652 201.249 609.635 202.37C611.619 203.453 613.875 203.994 616.403 203.994C620.486 203.994 623.909 202.39 626.67 199.18L632.737 204.749C630.792 207.108 628.381 208.906 625.503 210.144C622.625 211.381 619.417 212 615.878 212Z" fill="white"></path> <path d="M661.004 212C655.17 212 650.62 210.395 647.353 207.185C644.125 203.975 642.511 199.392 642.511 193.436V170.696H651.961V193.088C651.961 200.359 654.995 203.994 661.062 203.994C664.018 203.994 666.273 203.124 667.829 201.384C669.385 199.605 670.162 196.84 670.162 193.088V170.696H679.496V193.436C679.496 199.392 677.863 203.975 674.596 207.185C671.368 210.395 666.837 212 661.004 212Z" fill="white"></path> <path d="M718.937 211.304L711.062 199.992H702.37V211.304H692.919V170.696H710.595C714.212 170.696 717.343 171.296 719.987 172.494C722.671 173.693 724.732 175.395 726.171 177.599C727.61 179.804 728.33 182.414 728.33 185.431C728.33 188.448 727.591 191.058 726.113 193.262C724.674 195.428 722.612 197.091 719.929 198.251L729.088 211.304H718.937ZM718.762 185.431C718.762 183.149 718.023 181.409 716.545 180.21C715.068 178.972 712.909 178.354 710.07 178.354H702.37V192.508H710.07C712.909 192.508 715.068 191.89 716.545 190.652C718.023 189.414 718.762 187.674 718.762 185.431Z" fill="white"></path> <path d="M739.901 170.696H749.351V211.304H739.901V170.696Z" fill="white"></path> <path d="M771.585 178.354H758.518V170.696H794.103V178.354H781.036V211.304H771.585V178.354Z" fill="white"></path> <path d="M822.132 196.917V211.304H812.682V196.801L796.872 170.696H806.906L817.815 188.738L828.724 170.696H838L822.132 196.917Z" fill="white"></path> <path d="M90.1142 87.2143H37.1538L27.0506 111H0L50.842 0H76.9149L127.92 111H100.217L90.1142 87.2143ZM81.8035 67.71L63.7155 25.2129L45.6275 67.71H81.8035Z" fill="white"></path> <path d="M263.318 111L241.319 80.0786H217.039V111H190.64V0H240.016C250.119 0 258.864 1.63857 266.251 4.91572C273.747 8.19286 279.505 12.8443 283.525 18.87C287.544 24.8957 289.554 32.0314 289.554 40.2771C289.554 48.5229 287.49 55.6586 283.362 61.6843C279.342 67.6043 273.585 72.15 266.089 75.3214L291.672 111H263.318ZM262.829 40.2771C262.829 34.04 260.765 29.2829 256.637 26.0057C252.509 22.6229 246.48 20.9314 238.549 20.9314H217.039V59.6229H238.549C246.48 59.6229 252.509 57.9314 256.637 54.5486C260.765 51.1657 262.829 46.4086 262.829 40.2771Z" fill="white"></path> <path d="M383.393 20.9314H346.891V0H446.293V20.9314H409.791V111H383.393V20.9314Z" fill="white"></path> <path d="M615.185 111L615.022 44.4L581.454 99.2657H569.558L536.152 45.8271V111H511.383V0H533.219L575.913 68.9786L617.956 0H639.629L639.955 111H615.185Z" fill="white"></path> <path d="M793.026 87.2143H740.066L729.963 111H702.912L753.754 0H779.827L830.832 111H803.129L793.026 87.2143ZM784.715 67.71L766.627 25.2129L748.539 67.71H784.715Z" fill="white"></path> <path d="M959.527 111L931.988 72.4671L904.937 111H874.628L916.833 54.5486L876.746 0H906.73L932.966 35.9957L958.713 0H987.23L947.469 53.5971L990 111H959.527Z" fill="white"></path> </svg> 